<svg width="52" height="26" viewBox="0 0 52 26" fill="none" xmlns="http://www.w3.org/2000/svg">
<path d="M1.50851 14.7666L1.0752 7.43332L8.40846 7M1.77418 7.79329C1.77418 8.7782 2.39496 9.75347 3.60107 10.6634C4.80718 11.5734 6.57501 12.4002 8.80361 13.0966C11.0322 13.793 13.678 14.3455 16.5898 14.7224C19.5016 15.0993 22.6225 15.2933 25.7742 15.2933C28.9259 15.2933 32.0468 15.0993 34.9586 14.7224C37.8704 14.3455 40.5161 13.793 42.7447 13.0966C44.9733 12.4002 46.7412 11.5734 47.9473 10.6634C49.1534 9.75348 49.7742 8.77821 49.7742 7.79329M42.8916 7.7607L50.2249 8.19381L49.7918 15.5271" stroke="#212121"/>
<path d="M38.0752 12.7073V4.5122L26.0752 1L14.0752 4.5122V12.7073M38.0752 16.8049V20.9024L26.0752 25L14.0752 20.9024V16.8049" stroke="#212121"/>
<path d="M26.0752 8.71436L26.0752 12.5715" stroke="#212121"/>
<path d="M20.0752 7L26.0752 8.71429L32.0752 7" stroke="#212121"/>
</svg>
