<svg width="24" height="24" viewBox="0 0 24 24" fill="none" xmlns="http://www.w3.org/2000/svg">
<path d="M9.59864 8.11161C9.5985 8.40627 9.48781 8.68882 9.29093 8.89707C9.09404 9.10533 8.82709 9.22225 8.54879 9.2221C8.2705 9.22195 8.00365 9.10475 7.80697 8.89629C7.61028 8.68782 7.49986 8.40516 7.5 8.11049C7.50014 7.81583 7.61083 7.53328 7.80771 7.32503C8.00459 7.11677 8.27155 6.99985 8.54984 7C8.82814 7.00015 9.09498 7.11735 9.29167 7.32581C9.48836 7.53428 9.59878 7.81694 9.59864 8.11161ZM9.63012 10.0448H7.53148V17H9.63012V10.0448ZM12.946 10.0448H10.8578V17H12.925V13.3502C12.925 11.317 15.4276 11.1281 15.4276 13.3502V17H17.5V12.5947C17.5 9.1671 13.7959 9.29487 12.925 10.9781L12.946 10.0448Z" fill="#212121"/>
<rect x="2.55" y="2.55" width="18.9" height="18.9" stroke="#212121" stroke-width="2.1"/>
</svg>
