<svg width="24" height="24" viewBox="0 0 24 24" fill="none" xmlns="http://www.w3.org/2000/svg">
<path d="M17.6 12.5556V13.1111C17.5988 14.0511 17.2576 14.959 16.6393 15.667C16.021 16.375 15.1674 16.8354 14.2361 16.9632C14.6162 17.4496 14.8226 18.0493 14.8222 18.6667V21.4444C14.8222 21.5918 14.7637 21.7331 14.6595 21.8373C14.5553 21.9415 14.414 22 14.2666 22H9.8222C9.67486 22 9.53355 21.9415 9.42936 21.8373C9.32517 21.7331 9.26664 21.5918 9.26664 21.4444V20.3333H7.59998C6.86326 20.3333 6.15672 20.0407 5.63579 19.5197C5.11486 18.9988 4.8222 18.2923 4.8222 17.5556C4.8222 17.1135 4.6466 16.6896 4.33404 16.377C4.02148 16.0645 3.59756 15.8889 3.15553 15.8889C3.00819 15.8889 2.86688 15.8304 2.76269 15.7262C2.65851 15.622 2.59998 15.4807 2.59998 15.3333C2.59998 15.186 2.65851 15.0447 2.76269 14.9405C2.86688 14.8363 3.00819 14.7778 3.15553 14.7778C3.52031 14.7778 3.88153 14.8496 4.21854 14.9892C4.55556 15.1288 4.86178 15.3334 5.11972 15.5914C5.37766 15.8493 5.58227 16.1555 5.72186 16.4925C5.86146 16.8296 5.93331 17.1908 5.93331 17.5556C5.93331 17.9976 6.1089 18.4215 6.42146 18.7341C6.73403 19.0466 7.15795 19.2222 7.59998 19.2222H9.26664V18.6667C9.26629 18.0493 9.47262 17.4496 9.85275 16.9632C8.92147 16.8354 8.06787 16.375 7.44957 15.667C6.83127 14.959 6.49003 14.0511 6.48886 13.1111V12.5556C6.49578 11.8651 6.67965 11.188 7.02289 10.5889C6.85308 10.0411 6.79861 9.46409 6.86291 8.89421C6.92722 8.32433 7.1089 7.77395 7.3965 7.27779C7.44527 7.19331 7.51543 7.12317 7.5999 7.07441C7.68438 7.02565 7.78021 6.99999 7.87775 7.00001C8.52485 6.99865 9.16329 7.14866 9.74206 7.43805C10.3208 7.72744 10.8239 8.14819 11.2111 8.66667H12.8778C13.2649 8.14819 13.768 7.72744 14.3468 7.43805C14.9256 7.14866 15.564 6.99865 16.2111 7.00001C16.3086 6.99999 16.4045 7.02565 16.4889 7.07441C16.5734 7.12317 16.6436 7.19331 16.6923 7.27779C16.98 7.77394 17.1616 8.32435 17.2258 8.89426C17.29 9.46416 17.2353 10.0412 17.0653 10.5889C17.4091 11.1878 17.5933 11.865 17.6 12.5556Z" fill="#212121"/>
<rect x="2.55" y="2.55" width="18.9" height="18.9" stroke="#212121" stroke-width="2.1"/>
</svg>
